#N canvas 545 48 1285 888 10;
#X obj 628 147 adc~;
#X obj 198 615 freeverb~;
#X msg 405 107 roomsize \$1;
#X msg 395 196 width \$1;
#X msg 395 240 wet \$1;
#X msg 395 284 dry \$1;
#X msg 429 307 print;
#X msg 448 346 freeze \$1;
#X msg 453 383 bypass \$1;
#X obj 453 364 tgl 15 0 empty empty empty 0 -6 0 8 -262144 -1 -1 0
1;
#X obj 448 327 tgl 15 0 empty empty empty 0 -6 0 8 -262144 -1 -1 0
1;
#X obj 407 261 hsl 60 18 0 1 0 1 empty empty dry 2 9 1 12 -225271 -1
-1 2500 0;
#X obj 407 217 hsl 60 18 0 1 0 1 empty empty wet 2 9 1 12 -225271 -1
-1 4400 0;
#X obj 407 173 hsl 60 18 0 1 0 1 empty empty width 2 9 1 12 -262131
-1 -1 2900 0;
#X obj 407 129 hsl 60 18 0 2 0 1 empty empty damping 2 9 1 12 -261689
-1 -1 3300 0;
#X obj 407 84 hsl 60 18 0.11 1.1 0 1 empty empty roomsize 2 9 1 12
-261689 -1 -1 2900 0;
#X floatatom 377 88 3 0 0 0 - - -, f 3;
#X floatatom 377 133 3 0 0 0 - - -, f 3;
#X floatatom 377 178 3 0 0 0 - - -, f 3;
#X floatatom 377 221 3 0 0 0 - - -, f 3;
#X floatatom 377 265 3 0 0 0 - - -, f 3;
#X msg 395 152 damping \$1;
#X obj 64 432 readsf~ 1;
#X msg 81 403 stop;
#X msg 43 307 start;
#X msg 81 403 stop;
#X msg 81 403 stop;
#X msg 81 403 stop;
#X msg 81 403 stop;
#X msg 81 403 stop;
#X msg 46 362 open 1.wav \, 1;
#X obj 566 645 cos~;
#X obj 639 645 cos~;
#X obj 660 512 hsl 100 15 0 0.99 0 0 empty empty empty -2 -8 0 10 -261234
-1 -1 9900 1;
#X floatatom 671 539 5 0 0 0 - - -, f 5;
#X obj 639 614 + 0.75;
#X obj 552 693 *~;
#X obj 625 695 *~;
#X text 763 560 <-- Range: 0-.25;
#X obj 565 814 dac~;
#X floatatom 690 704 5 0 0 0 - - -, f 5;
#X obj 689 680 snapshot~;
#X floatatom 774 705 5 0 0 0 - - -, f 5;
#X obj 773 681 snapshot~;
#X obj 766 649 metro 50;
#X obj 769 615 tgl 15 0 empty empty empty 17 7 0 10 -262144 -1 -1 0
1;
#X obj 628 183 fiddle~;
#X floatatom 628 216 5 0 0 0 - - -, f 5;
#X obj 628 257 moses 60;
#X floatatom 629 293 5 0 0 0 - - -, f 5;
#X floatatom 681 294 5 0 0 0 - - -, f 5;
#X obj 635 346 / 60;
#X floatatom 633 373 5 0 0 0 - - -, f 5;
#X obj 704 338 / 120;
#X floatatom 705 372 5 0 0 0 - - -, f 5;
#X connect 0 0 46 0;
#X connect 1 0 36 0;
#X connect 1 0 37 0;
#X connect 1 1 36 0;
#X connect 1 1 37 0;
#X connect 2 0 1 0;
#X connect 3 0 1 0;
#X connect 4 0 1 0;
#X connect 5 0 1 0;
#X connect 6 0 1 0;
#X connect 7 0 1 0;
#X connect 8 0 1 0;
#X connect 9 0 8 0;
#X connect 10 0 7 0;
#X connect 11 0 5 0;
#X connect 11 0 20 0;
#X connect 12 0 4 0;
#X connect 12 0 19 0;
#X connect 13 0 3 0;
#X connect 13 0 18 0;
#X connect 14 0 21 0;
#X connect 14 0 17 0;
#X connect 15 0 2 0;
#X connect 15 0 16 0;
#X connect 21 0 1 0;
#X connect 22 0 1 0;
#X connect 22 0 1 1;
#X connect 22 0 39 0;
#X connect 22 1 1 1;
#X connect 22 1 39 1;
#X connect 23 0 22 0;
#X connect 24 0 30 0;
#X connect 30 0 22 0;
#X connect 31 0 36 1;
#X connect 31 0 41 0;
#X connect 32 0 37 1;
#X connect 32 0 43 0;
#X connect 33 0 34 0;
#X connect 33 0 31 0;
#X connect 33 0 35 0;
#X connect 35 0 32 0;
#X connect 36 0 39 0;
#X connect 37 0 39 1;
#X connect 41 0 40 0;
#X connect 43 0 42 0;
#X connect 44 0 43 0;
#X connect 44 0 41 0;
#X connect 45 0 44 0;
#X connect 46 0 47 0;
#X connect 47 0 48 0;
#X connect 48 0 49 0;
#X connect 48 1 50 0;
#X connect 49 0 51 0;
#X connect 50 0 53 0;
#X connect 51 0 52 0;
#X connect 53 0 54 0;
#X connect 54 0 33 0;
