#N canvas 328 17 642 422 10;
#X obj 233 157 cos~;
#X obj 306 157 cos~;
#X obj 309 72 hsl 100 15 0 0.25 0 0 empty empty empty -2 -8 0 10 -262144
-1 -1 0 1;
#X floatatom 342 87 5 0 0 0 - - -;
#X obj 306 126 + 0.75;
#X obj 219 205 *~;
#X obj 292 207 *~;
#X obj 306 15 loadbang;
#X msg 306 39 0.125;
#X text 430 72 <-- Range: 0-.25;
#X obj 159 153 osc~ 440;
#X obj 232 326 dac~;
#X floatatom 357 216 5 0 0 0 - - -;
#X obj 356 192 snapshot~;
#X floatatom 441 217 5 0 0 0 - - -;
#X obj 440 193 snapshot~;
#X obj 433 161 metro 50;
#X obj 436 127 tgl 15 0 empty empty empty 17 7 0 10 -262144 -1 -1 1
1;
#X text 69 22 Equal power panning using;
#X text 70 36 curves from [cos~];
#X text 529 352 .mmb;
#X connect 0 0 5 1;
#X connect 0 0 13 0;
#X connect 1 0 6 1;
#X connect 1 0 15 0;
#X connect 2 0 3 0;
#X connect 2 0 0 0;
#X connect 2 0 4 0;
#X connect 4 0 1 0;
#X connect 5 0 11 0;
#X connect 6 0 11 1;
#X connect 7 0 8 0;
#X connect 8 0 2 0;
#X connect 10 0 5 0;
#X connect 10 0 6 0;
#X connect 13 0 12 0;
#X connect 15 0 14 0;
#X connect 16 0 15 0;
#X connect 16 0 13 0;
#X connect 17 0 16 0;
